<svg width="151" height="118" viewBox="0 0 151 118" fill="none" xmlns="http://www.w3.org/2000/svg">
<g clip-path="url(#clip0_665_23850)">
<path d="M24.9825 87.8466C24.0461 87.4755 23.6192 86.6205 23.1333 85.8367C22.4354 84.7175 22.2617 83.3993 21.8052 82.1881C21.5284 81.4518 21.5991 80.7512 21.552 80.0268C21.5196 79.5102 21.7169 79.1777 22.1586 79.0174C23.1038 78.676 23.6574 77.8388 24.4113 77.2569C25.5803 76.3544 26.661 75.3332 27.8271 74.4277C28.793 73.6796 28.79 73.7093 28.3895 72.5128C27.9184 71.1027 27.5297 69.6687 27.1057 68.2408C26.7052 66.887 26.29 65.5392 25.919 64.1765C25.7688 63.6303 25.648 63.0602 25.6333 62.4962C25.6068 61.4541 25.5479 60.4299 25.3654 59.3968C25.1828 58.3607 25.3801 57.2978 25.3771 56.2499C25.3771 55.4661 25.4478 54.7952 26.078 54.2786C26.4991 54.7061 26.9643 54.6556 27.406 54.3469C27.9419 53.9698 28.5751 53.8036 29.1345 53.4859C30.3978 52.7705 31.5875 51.9333 32.9155 51.3128C35.3154 50.1936 37.5622 48.7804 39.8443 47.4356C41.8261 46.2688 43.8403 45.1615 45.8456 44.0393C47.7537 42.9705 49.6737 41.9285 51.5759 40.8568C52.6654 40.2422 53.699 39.5327 54.7532 38.8617C56.6761 37.6386 58.596 36.4155 60.4453 35.0765C60.9459 34.7144 61.3728 34.2928 61.5966 33.6961C61.9588 32.7372 61.5348 32.0484 60.5101 31.9475C61.2845 31.0717 62.3593 30.6382 63.3163 30.0445C64.9624 29.0232 66.6379 28.0465 68.3164 27.0757C70.1126 26.0396 71.7764 24.769 73.5344 23.6646C75.3866 22.5008 77.2388 21.337 79.2087 20.3781C79.4738 20.2505 79.7329 20.1288 80.0185 20.0664C80.1304 21.0906 80.525 22.0466 80.9255 22.955C81.273 23.7418 81.7618 24.4988 82.0916 25.2915C82.7011 26.7551 83.24 28.2484 83.9673 29.6585C84.3531 30.4037 84.7536 31.1518 85.0421 31.9356C85.2659 32.5442 85.6517 33.0667 85.8431 33.6842C85.0775 33.9692 84.6093 34.6312 83.9821 35.0914C84.7153 34.8272 85.4809 34.6253 85.8932 33.8861C86.1876 34.082 86.1199 34.4175 86.1523 34.6876C86.2112 35.1508 86.3349 35.6109 86.6028 35.9494C87.4921 37.0656 87.8366 38.4402 88.3549 39.7108C88.8113 40.833 89.309 41.97 90.0481 42.8429C91.3408 44.3718 92.1476 46.1917 93.3343 47.7681C93.8585 48.4628 94.2178 49.2821 94.8832 49.87C95.4251 50.3509 95.7048 51.0308 96.1377 51.5948C96.8738 52.5537 97.3273 53.7353 98.3815 54.4419C99.5564 55.2316 100.369 56.4517 101.63 57.1494C102.071 57.3928 102.501 57.7343 102.816 58.1291C103.676 59.2127 104.907 59.4651 106.126 59.7797C105.681 60.4744 104.916 60.7624 104.28 61.1988C102.631 62.3299 100.952 63.4224 99.2443 64.4585C98.2019 65.0909 97.2095 65.8123 96.2673 66.5545C94.7449 67.7569 93.0958 68.7544 91.5293 69.8795C90.2071 70.8325 88.7996 71.6638 87.4509 72.5811C86.5704 73.1808 85.7283 73.8428 84.8655 74.4693C84.094 75.0304 83.2164 75.4252 82.4538 76.0101C81.7353 76.5622 80.9755 77.061 80.1628 77.4737C80.0421 77.533 79.8978 77.6073 79.9361 77.7676C79.9802 77.9457 80.154 77.8774 80.2777 77.8893C82.3389 78.1268 84.4002 78.3613 86.4585 78.6048C86.5174 78.6107 86.5704 78.673 86.6264 78.7087C86.5645 78.8274 86.4467 78.8245 86.3407 78.8512C84.7624 79.2252 83.349 79.9912 81.8972 80.6859C80.8489 81.1876 79.8654 81.7992 78.8259 82.3128C78.1869 82.6275 77.4979 82.9332 77.015 83.5359C76.2994 84.4295 75.2717 84.9194 74.3471 85.5398C73.1457 85.2875 72.0974 84.5987 70.8753 84.3731C70.3541 84.2781 69.9301 84.4265 69.6327 84.6908C68.5696 85.6437 67.2416 86.1573 66.1197 86.9975C65.2569 87.6417 64.3205 88.1702 63.4371 88.7758C62.6067 89.3458 61.8087 89.9811 60.9223 90.4828C60.1331 90.9282 59.3822 91.4655 58.6667 92.0207C57.9688 92.561 57.1855 92.941 56.4523 93.4012C55.2921 94.1285 54.1761 94.9271 53.1601 95.8118C51.0635 97.6346 48.3574 97.3585 46.7525 96.4382C46.1724 96.1057 45.6188 95.702 45.1123 95.2596C43.5281 93.8732 41.8614 92.5758 40.392 91.0529C39.9886 90.6343 39.5528 90.2453 39.1317 89.8416C40.4215 89.4052 41.4521 88.4819 42.7036 87.9475C44.2024 87.3063 45.6306 86.4958 47.0735 85.7269C48.6666 84.8778 50.4393 84.4592 51.9941 83.4854C53.3516 82.6364 54.871 82.0545 56.308 81.3301C57.5507 80.7037 58.755 80.0001 60.0153 79.4093C61.0224 78.9373 61.9323 78.3049 62.9335 77.8269C64.3646 77.1441 65.6809 76.2476 67.1032 75.541C68.1397 75.0274 69.1733 74.5019 70.1804 73.923C70.9371 73.4896 71.5084 72.8186 72.3094 72.4564C72.9749 72.1536 73.6698 71.8389 74.2175 71.3699C75.4189 70.3397 76.8471 69.6777 78.1251 68.7751C79.6711 67.6797 81.2788 66.6703 82.8896 65.6757C83.6817 65.1859 84.409 64.607 85.1805 64.0963C85.8873 63.6273 86.6205 63.2146 87.23 62.5971C88.2077 61.6055 89.4238 60.8752 90.3131 59.7738C91.3496 58.4854 92.0564 57.0366 92.1447 55.3889C92.2242 53.9016 91.3702 52.7705 90.3072 51.8234C89.8626 51.4286 89.3738 51.099 89.9097 50.4251C90.0098 50.2975 90.0069 50.0867 90.051 49.9145C90.0805 49.8759 90.1099 49.8373 90.1394 49.7987C90.5192 49.6176 90.8932 49.4306 91.276 49.2584C91.4233 49.1931 91.6088 49.1396 91.5646 48.9496C91.5204 48.7686 91.5057 48.5726 91.2907 48.442C90.8785 48.1956 90.6871 48.5429 90.425 48.7121C90.3779 47.8423 90.425 46.9754 90.1512 46.1115C89.7507 44.8587 89.1235 43.7276 88.4109 42.6499C87.7807 41.6969 86.9444 40.9874 85.8932 40.4471C84.7712 39.8711 83.6729 39.3902 82.4008 39.2803C81.4202 39.1972 80.472 39.5357 79.5238 39.4614C78.5491 39.3872 77.6805 39.7167 76.8559 40.0492C75.5485 40.5777 74.3265 41.3288 73.072 41.9938C71.7381 42.7033 70.4778 43.5198 69.3058 44.4787C68.5814 45.0695 67.8717 45.7226 67.0502 46.1352C66.0254 46.6518 65.2922 47.5306 64.3116 48.0887C63.5578 48.5192 62.8098 48.9882 62.1473 49.5493C61.473 50.1223 60.6543 50.4222 59.9506 50.9476C59.2144 51.4969 58.49 52.0995 57.6979 52.5359C56.7055 53.0822 55.8516 53.8214 54.9741 54.4864C53.6166 55.5136 52.1001 56.2558 50.6925 57.185C49.6413 57.8797 48.5606 58.5566 47.5417 59.284C45.9457 60.424 44.3556 61.5818 42.8302 62.8316C41.67 63.7817 40.501 64.7495 39.2731 65.6282C38.8343 65.3551 38.8019 65.0612 39.2466 64.7703C39.4527 64.6337 39.5116 64.4496 39.5793 64.224C39.9327 63.0573 40.0328 61.843 40.3243 60.6169C39.8325 60.6615 39.647 60.9465 39.5528 61.3146C39.3732 62.0034 39.1052 62.6684 39.0316 63.3868C38.9344 64.3576 38.3484 65.2334 38.4692 66.2487C37.6505 67.1453 36.4815 67.5936 35.657 68.4901C35.5068 68.6534 35.4008 68.9384 35.0916 68.9058C35.4096 67.0176 36.1252 65.2275 36.3843 63.3215C34.9179 65.0553 34.9238 67.2581 34.5439 69.3362C34.0757 69.7044 33.6517 70.1556 33.1334 70.4198C31.8054 71.0938 31.1399 72.5277 29.8207 73.1986C30.1799 73.0977 30.5156 72.9641 30.7865 72.7474C32.1204 71.6816 33.7047 71.0374 35.1122 70.0873C36.0369 69.4639 36.985 68.8701 37.9097 68.2348C38.4809 67.84 38.8431 67.2165 39.4792 66.89C41.5316 65.8301 43.3662 64.414 45.2566 63.1018C45.5246 62.9177 45.875 62.8257 46.0664 62.5912C47.209 61.1959 48.9581 60.6912 50.3274 59.6194C51.4434 58.7466 52.7921 58.1796 53.914 57.2622C54.3616 56.8971 54.7179 56.3983 55.3068 56.1964C55.5012 56.1281 55.722 56.0955 55.8928 55.9114C56.5465 55.2078 57.477 54.8961 58.2456 54.3409C59.2321 53.6284 60.3304 53.0525 61.3022 52.2836C61.8793 51.8264 62.483 51.3662 63.1396 51.0456C64.6768 50.2975 66.0667 49.3029 67.5184 48.4182C69.2057 47.3881 70.7546 46.1323 72.436 45.0784C73.3047 44.5351 74.2263 44.0868 75.1009 43.5583C75.9932 43.021 77.0768 42.7627 78.0574 42.3293C78.4137 42.1719 78.8112 41.9522 79.1705 41.9819C80.3954 42.0858 81.6175 41.7533 82.8366 41.9968C82.7747 42.166 82.7247 42.3441 82.5333 42.4183C81.5527 42.8043 80.7194 43.4544 79.8212 43.9859C79.6092 44.1135 79.2824 44.1877 79.2087 44.6301C79.9537 44.2798 80.6222 43.9829 81.273 43.6504C82.1151 43.2169 82.9426 42.7508 83.7759 42.2996C84.2 42.6143 84.6947 42.7865 85.1599 43.018C85.8755 43.3743 86.223 44.0719 86.6117 44.7696C87.5392 46.4499 87.7984 48.056 86.7177 49.769C86.3672 50.3272 86.1317 50.9565 85.6517 51.4345C85.5781 51.5087 85.5192 51.6275 85.5045 51.7344C85.3837 52.6072 84.8007 53.3316 84.2589 53.8095C83.296 54.6645 82.6216 55.8194 81.4644 56.4725C80.5721 56.9772 79.889 57.7729 79.1175 58.4468C78.0103 59.4146 76.7853 60.2221 75.6015 61.0771C75.1156 61.4274 74.7063 61.9321 74.1763 62.1488C73.5167 62.419 72.9189 62.7723 72.3447 63.1612C71.3788 63.8143 70.5161 64.6367 69.506 65.2067C68.4872 65.7796 67.5478 66.4684 66.5525 67.0711C65.622 67.6351 64.824 68.3922 63.8523 68.9028C62.4123 69.6598 61.0018 70.4822 59.5825 71.2808C57.9452 72.2011 56.311 73.1244 54.6796 74.0536C53.2956 74.8404 51.8733 75.5736 50.5453 76.4524C49.2967 77.2807 47.954 77.9338 46.6701 78.6909C45.6277 79.3054 44.4792 79.7656 43.3868 80.3029C41.2725 81.3449 39.2142 82.5057 37.1676 83.6814C36.5257 84.0495 35.7512 84.1415 35.2006 84.6759C34.6735 85.1865 34.0433 85.519 33.3808 85.804C32.0881 86.3592 30.76 86.8431 29.6116 87.6952C29.0315 88.1256 28.2953 87.8941 27.671 88.1553C27.5238 88.2177 27.3825 88.0544 27.2735 87.9386C26.7376 87.3686 26.0662 87.042 25.3506 86.763C24.9001 86.5878 24.8059 86.757 24.7352 87.1489C24.6822 87.4458 24.9089 87.6002 24.9737 87.8317L24.9825 87.8466ZM69.5826 40.3936C70.4483 40.2778 71.158 39.8503 71.794 39.2833C70.943 39.4288 70.1921 39.7672 69.5855 40.3966C69.5767 40.4114 69.5649 40.4293 69.5561 40.4441C69.5649 40.4263 69.5738 40.4085 69.5826 40.3907V40.3936ZM95.163 57.5561C93.7967 58.2063 92.6276 58.8416 91.5175 59.5868C91.3673 59.6877 90.9256 59.6194 91.2171 59.9608C91.3585 60.1241 91.6235 60.4893 92.0063 60.1449C92.5864 59.6283 93.2401 59.2068 93.8821 58.7674C94.3179 58.4705 94.7743 58.1707 95.163 57.5561ZM36.6817 72.878C37.253 72.5633 37.3266 72.0111 37.5386 71.5302C37.8449 70.8355 38.0599 70.1141 38.2424 69.3778C38.2689 69.2709 38.3455 69.1551 38.2189 69.0809C38.1129 69.0186 38.001 69.072 37.9126 69.1462C37.5769 69.4253 37.2677 69.6509 37.2206 70.2031C37.1411 71.1027 36.8761 71.9874 36.6876 72.878H36.6817ZM32.3001 80.8788C31.3165 81.3153 30.3949 81.7279 29.4673 82.1346C29.323 82.2 29.1287 82.2504 29.2258 82.4493C29.2936 82.5889 29.4614 82.5057 29.588 82.4493C30.4479 82.0871 31.3107 81.7339 32.1646 81.3598C32.2765 81.3123 32.3472 81.1639 32.3001 80.8759V80.8788ZM39.2466 77.0699C39.3702 76.5682 39.597 76.0991 38.9609 75.9536C38.7901 75.9151 38.7548 75.7458 38.7283 75.5796C38.6959 75.3866 38.6841 75.1432 38.4427 75.1105C38.3543 75.0986 38.2159 75.2382 38.1482 75.3421C38.0304 75.5261 38.0392 75.728 38.1924 75.9002C38.5428 76.2921 38.8961 76.678 39.2466 77.0669V77.0699ZM33.051 82.3098C31.932 82.4434 30.9985 83.1054 29.9237 83.3786C30.6157 83.5092 32.25 82.9451 33.051 82.3098ZM55.1949 58.9901C55.1684 58.9455 55.1478 58.8654 55.1007 58.8475C54.9593 58.7941 54.8151 58.8624 54.7297 58.9574C54.2497 59.4947 53.5223 59.6758 53.0159 60.1746C52.9157 60.2726 52.7685 60.329 52.8716 60.4804C52.9687 60.6229 53.1101 60.5635 53.2279 60.4774C53.6843 60.136 54.1496 59.8005 54.5913 59.4413C54.7827 59.2869 55.0536 59.2483 55.1949 58.9901ZM29.2553 80.9679C30.1652 80.9946 30.8925 80.4246 31.7229 80.1693C31.8201 80.1396 31.8348 80.0268 31.7877 79.9437C31.7347 79.8457 31.6346 79.8665 31.5551 79.911C30.8218 80.3237 29.9561 80.4306 29.2553 80.9709V80.9679ZM85.1187 46.3817C85.2954 46.2006 85.6988 46.2006 85.7842 45.8116C85.8225 45.6424 85.6694 45.5801 85.5251 45.5979C85.1599 45.6484 85.0127 45.9838 84.8154 46.2302C84.7477 46.3134 84.9214 46.3846 85.1187 46.3817ZM57.6213 71.6549C57.5094 71.4233 57.3121 71.5064 57.1502 71.5005C56.8263 71.4916 56.6996 71.7736 56.576 71.9874C56.52 72.0853 56.7409 72.1922 56.8675 72.1358C57.1413 72.02 57.4594 71.9577 57.6213 71.6549ZM27.6975 86.8758C27.7182 86.9292 27.7388 86.9827 27.7594 87.0361C28.1186 86.9411 28.4779 86.8491 28.8371 86.7452C28.9667 86.7066 29.1198 86.6234 29.055 86.4661C28.9961 86.3176 28.8165 86.3533 28.6987 86.4037C28.3601 86.5492 28.0303 86.7155 27.6975 86.8758ZM24.4849 82.8353C24.2434 82.8679 24.0785 83.0104 24.0285 83.2539C23.9931 83.435 24.1021 83.5923 24.2758 83.5953C24.5762 83.5982 24.6616 83.3162 24.7411 83.1025C24.797 82.957 24.6351 82.8768 24.4849 82.8382V82.8353ZM47.7331 90.7292C48.1277 90.8896 48.3986 91.0172 48.6842 91.1063C48.8462 91.1568 48.9993 91.0885 49.0052 90.8718C49.0111 90.7441 48.9286 90.5986 48.8256 90.661C48.5076 90.848 48.1866 90.5333 47.7331 90.7322V90.7292ZM47.4622 86.6412C47.7861 86.6205 47.9569 87.0598 48.2808 86.9055C48.3368 86.8788 48.3662 86.5967 48.3073 86.5433C48.0364 86.2939 47.7596 86.5611 47.4622 86.6412ZM51.3757 92.1454C51.6054 92.466 51.8262 92.5669 52.1089 92.4066C52.212 92.3502 52.2767 92.2374 52.1884 92.1275C51.9263 91.801 51.676 92.089 51.3757 92.1454ZM27.4531 87.137C27.4178 87.1222 27.3736 87.0895 27.3501 87.0984C27.3236 87.1073 27.3177 87.1637 27.3 87.1994C27.3353 87.2142 27.3795 87.2498 27.4031 87.238C27.4296 87.2261 27.4384 87.1727 27.4531 87.137Z" fill="white"/>
<path d="M146.012 18.8462C146.035 19.6686 145.464 20.2624 145.14 20.9244C144.472 22.29 143.674 23.6082 142.82 24.8669C141.397 26.9599 140.131 29.1509 138.709 31.2409C137.931 32.3839 137.172 33.5654 136.33 34.6401C135.423 35.795 134.542 36.9855 133.573 38.1047C132.793 39.0072 131.93 39.8325 131.197 40.7825C130.629 41.5218 129.895 42.1304 129.233 42.7983C129.094 42.9379 128.941 43.021 128.765 42.8488C128.871 42.4154 129.245 41.8424 128.57 41.6524C127.831 41.4416 127.348 40.9072 126.801 40.4827C126.377 40.1532 125.876 39.9246 125.517 39.4407C125.184 38.9953 125.184 38.4135 124.769 38.0424C124.171 37.502 124.224 37.4545 124.807 36.9113C125.62 36.1512 126.35 35.3289 126.871 34.2898C127.198 33.6397 127.381 32.9598 127.634 32.3007C128.235 30.7303 128.635 29.0945 128.553 27.3934C128.523 26.8144 128.391 26.2385 128.458 25.6507C128.659 25.241 128.974 24.9233 129.28 24.5968C129.972 23.8635 130.655 23.1243 131.341 22.388C131.515 22.201 131.624 22.008 131.468 21.8299C130.735 22.483 130.205 23.2846 129.38 23.7803C129.195 23.8902 129.027 24.0119 128.977 24.2108C128.891 24.5463 128.644 24.7185 128.397 24.9055C128.031 23.8783 127.778 22.7858 127.098 21.916C125.693 20.1169 124.439 18.1872 122.331 17.0472C121.315 16.4979 120.252 16.0793 119.183 15.7409C117.575 15.2303 115.876 15.4114 114.218 15.5925C112.696 15.7587 111.147 15.83 109.701 16.4237C109.453 16.5247 109.4 16.4178 109.303 16.2575C109.065 15.8626 108.95 15.3639 108.694 15.0314C108.052 14.1882 107.822 13.164 107.327 12.2615C106.78 11.267 106.512 10.118 105.608 9.33428C105.508 9.24818 105.446 9.09678 105.284 9.1799C105.142 9.25412 105.16 9.39662 105.157 9.53615C105.137 10.2487 105.237 10.9404 105.566 11.5727C105.746 11.9201 105.876 12.2793 105.946 12.6563C106.173 13.8587 106.641 14.9779 107.174 16.0645C107.339 16.4029 107.634 16.7058 107.701 17.0768C107.799 17.6201 107.186 17.5222 106.942 17.7834C105.781 19.0155 104.468 20.0842 103.57 21.5805C102.572 23.246 102.268 25.0807 101.939 26.9273C101.9 27.1469 101.886 27.3874 101.939 27.6012C102.101 28.287 102.112 28.9876 102.207 29.6763C102.383 30.9499 102.389 32.2651 102.981 33.4645C103.234 33.9781 103.809 34.2958 103.823 34.94C103.423 35.2161 103.037 35.5219 102.619 35.7653C101.523 36.4036 100.555 37.2259 99.4916 37.9177C98.7025 38.4313 98.0399 39.1824 97.2036 39.6277C96.5676 39.9661 96.2731 40.5718 95.7696 41.0141C96.1759 41.0141 96.4409 40.7528 96.7236 40.5183C97.1359 40.1799 97.5334 39.8147 97.9781 39.5297C99.1736 38.7608 100.248 37.8286 101.476 37.0953C102.351 36.5758 103.214 36.0206 104.079 35.4833C104.177 35.5723 104.321 35.6406 104.368 35.7505C104.748 36.647 105.525 37.1992 106.25 37.7128C107.587 38.6599 109.127 39.2981 110.699 39.6841C112.575 40.1472 114.53 40.3372 116.459 40.3669C118.343 40.3966 120.26 40.2155 121.845 38.9449C122.104 38.737 122.201 38.7994 122.41 39.0547C123.544 40.4352 124.792 41.7029 126.223 42.7776C126.857 43.2526 128.105 43.3119 128.729 42.8993C128.815 43.4604 128.291 43.6088 128.026 43.9205C127.828 44.158 127.516 44.2976 127.46 44.6479C126.577 44.3421 126.262 44.5499 126.344 45.3841C125.994 46.2124 125.137 46.4974 124.51 46.9992C124.165 47.2753 123.803 47.584 123.432 47.8571C122.163 48.7953 120.973 49.8551 119.654 50.7101C117.834 51.8858 116.15 53.2603 114.3 54.3736C111.927 55.8016 109.789 57.5591 107.495 59.0999C107.089 59.373 106.688 59.6551 106.197 59.753C106.656 58.6605 106.597 58.5566 105.593 57.8619C105.198 57.5888 104.704 57.4047 104.498 56.8941C104.197 56.1519 103.602 55.6828 102.981 55.2256C102.439 54.8278 101.962 54.3617 101.632 53.7531C101.529 53.5631 101.37 53.3761 101.191 53.2573C100.593 52.8625 100.243 52.2331 99.8067 51.7106C99.1824 50.9595 98.6436 50.1223 98.0576 49.3267C97.1712 48.1273 96.0051 47.1328 95.4133 45.7166C95.3897 45.6602 95.3337 45.6157 95.2837 45.5741C94.6005 45.0071 94.1353 44.256 93.7112 43.5049C93.0133 42.261 91.912 41.3585 91.064 40.2452C90.6075 39.6455 90.2483 39.0102 89.8537 38.3838C90.4574 37.8939 91.22 37.6089 91.7412 36.9142C91.2053 36.7955 90.8961 37.1102 90.5545 37.3358C90.2453 37.5406 90.0392 37.9058 89.6299 37.9563C89.2088 37.2497 88.9114 36.4125 88.3372 35.8722C87.6246 35.2042 87.0121 34.5422 86.7471 33.5922C87.4361 33.3814 87.9514 32.8381 88.6228 32.5947C88.7818 32.5382 88.8054 32.4017 88.7642 32.2651C88.6994 32.0514 88.5463 32.1018 88.3843 32.1464C87.707 32.3334 87.2035 32.8707 86.5321 33.0637C86.0021 32.8173 85.7989 32.3067 85.5368 31.8346C84.9832 30.8401 84.2117 29.9168 83.8996 28.854C83.5433 27.6398 82.9573 26.5413 82.5391 25.3627C81.8736 23.4894 80.9991 21.6933 80.6545 19.7102C80.6693 19.4816 80.8106 19.3747 80.9991 19.2559C82.6098 18.2525 84.194 17.2045 85.8225 16.2278C86.9562 15.5479 88.1281 14.9275 89.3119 14.3337C90.4927 13.7399 91.5292 12.9146 92.6924 12.2823C94.1647 11.4837 95.6223 10.6554 97.1123 9.89241C98.4021 9.23334 99.6624 8.50302 101.049 8.0577C101.253 8.12895 101.185 8.31599 101.22 8.45849C101.364 9.02553 101.735 9.171 102.198 8.81771C102.74 8.40208 102.31 7.99536 102.16 7.58864C102.304 7.18191 102.725 7.15816 103.028 7.01863C105.007 6.09237 107.024 5.22549 109.15 4.73267C111.98 4.07657 114.775 3.28688 117.625 2.7139C118.971 2.44375 120.319 2.09343 121.662 1.76983C122.766 1.50264 123.918 1.44624 125.04 1.2503C126.818 0.938576 128.612 0.799043 130.405 0.629823C131.3 0.543728 132.204 0.531853 133.099 0.63576C133.288 0.656542 133.45 0.623885 133.626 0.606072C133.435 1.19686 133.394 1.75202 133.7 2.35171C134.086 3.10578 133.868 3.99939 134.121 4.79502C134.586 6.25566 135.066 7.71333 135.735 9.09084C136.165 9.9785 136.394 10.9612 136.986 11.7746C137.581 12.591 138.264 13.3481 138.724 14.2624C138.974 14.7612 139.171 15.2956 139.628 15.6459C140.317 16.1773 141.041 16.6523 141.674 17.2639C141.924 17.5044 142.01 17.9051 142.375 18.018C142.873 18.1723 143.258 18.5197 143.671 18.8106C144.639 19.4934 145.116 19.4816 146.023 18.8522L146.012 18.8462ZM119.212 5.88456C122.11 6.19628 124.789 4.94346 127.619 4.75939C124.645 3.88954 122.01 5.46299 119.212 5.88456ZM105.19 15.4411C105.195 14.5504 104.63 13.8676 103.873 13.8765C103.361 13.8824 103.246 14.2714 103.234 14.6692C103.208 15.4767 103.841 16.2129 104.501 16.2248C105.045 16.2337 105.172 15.8923 105.19 15.444V15.4411ZM113.856 13.3213C113.876 13.3807 113.9 13.4371 113.921 13.4965C115.988 12.9621 118.046 12.407 120.045 11.6351C120.252 11.5549 120.375 11.4302 120.275 11.2343C120.154 10.9968 120.022 11.2313 119.892 11.2759C119.789 11.3115 119.663 11.3649 119.571 11.3352C118.767 11.077 118.114 11.6024 117.419 11.8013C116.618 12.0299 115.873 12.4693 115.063 12.7335C114.642 12.8701 114.256 13.1224 113.856 13.3243V13.3213ZM123.087 42.7301C123.049 41.59 122.722 41.1804 122.104 41.216C121.547 41.2516 120.964 41.6999 120.991 42.0769C121.029 42.6143 121.586 43.1249 122.127 43.0833C122.551 43.0507 123.078 43.1368 123.087 42.7301ZM109.265 51.1644C109.883 51.4494 110.128 50.9714 110.487 50.8912C111.102 50.7547 111.532 50.244 112.086 49.965C112.33 49.8403 112.38 49.579 112.213 49.3207C111.98 48.9586 111.827 49.3207 111.68 49.4039C110.835 49.8729 110.349 50.7992 109.265 51.1673V51.1644ZM93.0575 29.1004C93.5611 29.1984 93.9085 28.9341 94.2089 28.6521C94.9362 27.9693 95.8667 27.5655 96.5764 26.8708C96.6854 26.764 96.8532 26.6126 96.706 26.4701C96.5263 26.2949 96.4616 26.5443 96.3556 26.6393C96.0375 26.9273 95.696 27.1766 95.3102 27.3755C94.4592 27.8149 93.779 28.4829 93.0546 29.1004H93.0575Z" fill="white"/>
<path d="M39.279 65.6394C40.504 64.7606 41.673 63.7928 42.8361 62.8428C44.3615 61.5929 45.9546 60.4351 47.5476 59.2951C48.5665 58.5677 49.6472 57.8909 50.6984 57.1962C52.106 56.2669 53.6225 55.5277 54.98 54.4976C55.8575 53.8325 56.7115 53.0933 57.7038 52.5471C58.4989 52.1107 59.2203 51.505 59.9565 50.9588C60.6603 50.4363 61.4789 50.1334 62.1532 49.5605C62.8128 48.9994 63.5608 48.5303 64.3176 48.0998C65.2952 47.5417 66.0314 46.6659 67.0561 46.1464C67.8777 45.7307 68.5903 45.0806 69.3117 44.4898C70.4837 43.5309 71.747 42.7115 73.078 42.0049C74.3324 41.3399 75.5544 40.5918 76.8619 40.0604C77.6864 39.7279 78.5521 39.3983 79.5297 39.4726C80.4809 39.5438 81.4261 39.2054 82.4067 39.2915C83.6758 39.3983 84.7742 39.8823 85.8991 40.4582C86.9503 40.9985 87.7837 41.7081 88.4168 42.661C89.1323 43.7387 89.7566 44.8668 90.1571 46.1226C90.4339 46.9865 90.3838 47.8534 90.4309 48.7233C90.3367 49.0855 90.2395 49.4477 90.1453 49.8128C90.1159 49.8514 90.0864 49.89 90.057 49.9286C90.0128 50.1008 90.0157 50.3145 89.9156 50.4392C89.3797 51.1131 89.8685 51.4427 90.3131 51.8375C91.3762 52.7846 92.2301 53.9157 92.1506 55.403C92.0623 57.0507 91.3556 58.4995 90.319 59.7879C89.4297 60.8923 88.2165 61.6196 87.236 62.6112C86.6264 63.2287 85.8961 63.6414 85.1865 64.1104C84.415 64.6211 83.6906 65.203 82.8955 65.6898C81.2848 66.6844 79.677 67.6938 78.131 68.7892C76.853 69.6947 75.4249 70.3538 74.2234 71.384C73.6757 71.853 72.9808 72.1707 72.3153 72.4705C71.5143 72.8327 70.9431 73.5037 70.1863 73.9371C69.1792 74.516 68.1456 75.0415 67.1091 75.5551C65.6868 76.2617 64.3676 77.1582 62.9394 77.841C61.9383 78.319 61.0254 78.9543 60.0213 79.4234C58.7639 80.0142 57.5566 80.7178 56.3139 81.3442C54.8769 82.0686 53.3575 82.6505 52 83.4995C50.4452 84.4733 48.6725 84.8919 47.0794 85.741C45.6365 86.5099 44.2084 87.3204 42.7095 87.9616C41.458 88.496 40.4274 89.4193 39.1376 89.8557C38.2277 90.4969 37.7389 89.6449 37.3119 89.1847C36.4491 88.2615 35.6894 87.2224 35.2536 85.9992C35.1623 85.7469 35.071 85.735 34.8708 85.8746C33.5722 86.783 31.9732 87.1422 30.6952 88.0358C29.8531 88.6236 28.9108 88.6771 28.045 89.0601C27.4679 89.3154 26.9408 89.0126 26.4284 88.8018C25.8925 88.5791 25.2594 88.4782 24.9796 87.8488C24.9148 87.6172 24.6881 87.4628 24.7411 87.166C24.8118 86.7741 24.906 86.6019 25.3566 86.78C26.0721 87.0591 26.7464 87.3857 27.2794 87.9557C27.3884 88.0714 27.5297 88.2318 27.677 88.1724C28.3012 87.9111 29.0374 88.1427 29.6175 87.7122C30.763 86.8602 32.091 86.3763 33.3867 85.8211C34.0463 85.5361 34.6794 85.2036 35.2065 84.693C35.7542 84.1586 36.5286 84.0666 37.1735 83.6984C39.2201 82.5228 41.2784 81.359 43.3927 80.32C44.4852 79.7826 45.6336 79.3195 46.676 78.7079C47.9599 77.9539 49.3027 77.2978 50.5512 76.4695C51.8763 75.5907 53.2986 74.8574 54.6855 74.0707C56.3169 73.1415 57.9541 72.2211 59.5884 71.2979C61.0077 70.4993 62.4182 69.6769 63.8582 68.9199C64.8299 68.4092 65.6279 67.6492 66.5584 67.0881C67.5537 66.4855 68.4931 65.7967 69.512 65.2237C70.522 64.6567 71.3848 63.8314 72.3506 63.1783C72.9248 62.7923 73.5226 62.4361 74.1822 62.1659C74.7152 61.9492 75.1216 61.4475 75.6074 61.0942C76.7941 60.2392 78.0191 59.4287 79.1234 58.4638C79.8949 57.7899 80.5781 56.9973 81.4703 56.4896C82.6275 55.8335 83.3019 54.6816 84.2648 53.8266C84.8066 53.3457 85.3897 52.6213 85.5104 51.7514C85.5251 51.6446 85.5811 51.5258 85.6576 51.4516C86.1376 50.9736 86.3702 50.3442 86.7236 49.7861C87.8043 48.0731 87.5481 46.467 86.6176 44.7867C86.2318 44.086 85.8814 43.3884 85.1659 43.0351C84.7006 42.8035 84.2059 42.6313 83.7819 42.3167C83.5316 42.0138 83.1959 41.9871 82.8425 42.0138C81.6234 41.7704 80.4014 42.1029 79.1764 41.999C78.8171 41.9693 78.4196 42.189 78.0633 42.3463C77.0827 42.7798 75.9991 43.0381 75.1068 43.5754C74.2323 44.1039 73.3106 44.5521 72.4419 45.0954C70.7576 46.1493 69.2116 47.4051 67.5243 48.4353C66.0726 49.32 64.6827 50.3116 63.1456 51.0627C62.4889 51.3833 61.8882 51.8435 61.3081 52.3007C60.3363 53.0696 59.238 53.6455 58.2515 54.358C57.483 54.9132 56.5554 55.2249 55.8987 55.9285C55.7279 56.1126 55.5071 56.1482 55.3127 56.2135C54.7238 56.4154 54.3704 56.9141 53.9199 57.2793C52.798 58.1937 51.4493 58.7637 50.3333 59.6365C48.9611 60.7082 47.2149 61.2159 46.0723 62.6082C45.8809 62.8428 45.5276 62.9318 45.2626 63.1189C43.3721 64.4311 41.5375 65.8472 39.4851 66.907C38.8491 67.2366 38.4869 67.86 37.9156 68.2519C36.9939 68.8872 36.0428 69.481 35.1181 70.1044C33.7106 71.0544 32.1264 71.6986 30.7924 72.7644C30.5215 72.9812 30.1829 73.1147 29.8266 73.2157C31.1458 72.5418 31.8113 71.1079 33.1393 70.4369C33.6576 70.1727 34.0816 69.7214 34.5498 69.3533C34.6823 69.2464 34.8178 69.1396 34.9503 69.0357C35.0357 69.0446 35.0887 69.0089 35.1034 68.9199V68.9258C35.4067 68.9555 35.5157 68.6735 35.6659 68.5072C36.4874 67.6106 37.6594 67.1624 38.478 66.2658C38.746 66.058 39.014 65.8531 39.2819 65.6453L39.279 65.6394Z" fill="#28293D"/>
<path d="M17.7446 52.948C16.5226 53.0133 15.6951 52.2236 15.0355 51.4132C14.0961 50.2613 13.3305 48.9491 12.9801 47.4677C12.7357 46.4345 12.9713 45.4014 13.1862 44.3831C13.2805 43.9348 13.6014 43.6112 13.9607 43.3826C15.009 42.7087 15.8747 41.8092 16.7964 40.9928C18.3865 39.5856 20.1386 38.4099 21.823 37.1393C24.3848 35.2066 27.0321 33.3927 29.4732 31.2938C31.6258 29.4412 34.0758 28.0192 36.4992 26.5497C38.2307 25.5017 40.024 24.6021 41.8585 23.7738C42.9098 23.2988 44.0523 23.0168 45.083 22.5002C46.9617 21.5591 48.9905 21.4077 51.0077 21.1643C52.6419 20.9684 54.2586 21.1227 55.8163 21.6245C57.2474 22.0876 58.1603 23.0317 58.4459 24.6318C58.5666 25.3057 58.5549 25.9143 58.4842 26.5586C58.4606 26.7693 58.4488 26.9801 58.1632 26.9831C58.0572 26.8168 58.225 26.5437 57.9718 26.4428C57.7097 26.3418 57.5625 26.5675 57.3917 26.6981C57.3063 26.7634 57.2327 26.8525 57.1679 26.9386C55.6102 29.0375 53.6696 30.7148 51.5524 32.22C50.616 32.885 49.5618 33.2799 48.5754 33.8202C47.4122 34.4555 46.3374 35.2571 45.2331 35.9993C44.9563 36.1863 44.6854 36.3615 44.388 36.5188C43.3633 37.0562 42.5005 37.8577 41.464 38.3802C41.4257 38.401 41.3933 38.4366 41.3668 38.4723C40.4775 39.6152 39.1524 40.1704 37.9716 40.877C37.3267 41.2629 36.5729 41.5924 36.0045 42.0348C34.9209 42.8779 33.7312 43.5607 32.5975 44.2911C30.3095 45.7666 28.0745 47.3608 25.5863 48.5067C24.6705 48.9283 23.8666 49.5547 22.9685 49.9882C21.7111 50.5938 20.4066 51.1163 19.0962 51.6002C18.4101 51.8525 17.9713 52.2593 17.7475 52.9391L17.7446 52.948ZM27.6475 43.2639C26.8525 43.4479 26.29 44.0476 25.5598 44.3504C26.4491 44.3415 27.0939 43.8873 27.6417 43.2579C27.6505 43.2401 27.6623 43.2253 27.6711 43.2075C27.6623 43.2253 27.6534 43.2431 27.6446 43.2609L27.6475 43.2639ZM38.1954 39.5766C39.0081 39.6212 39.4027 38.9235 40.0005 38.5821C39.3026 38.7424 38.6842 39.0393 38.2013 39.5826C37.948 39.5826 37.7154 39.6241 37.627 39.9329C37.9568 40.022 38.1512 39.924 38.1954 39.5766ZM25.3478 42.581C25.121 42.5721 24.9208 42.6286 24.7088 42.7354C23.7517 43.2164 22.8271 43.7537 21.9555 44.3742C21.34 44.8136 20.6274 45.1401 20.0827 45.8615C20.3094 45.8378 20.4331 45.8586 20.5214 45.8111C21.5638 45.2559 22.6563 44.7779 23.5633 44.0031C24.1434 43.5103 24.8707 43.2104 25.3478 42.584C25.3625 42.5781 25.3831 42.5721 25.3949 42.5632C25.4037 42.5573 25.4008 42.5395 25.4037 42.5276C25.386 42.5484 25.3684 42.5662 25.3507 42.587L25.3478 42.581ZM35.9692 37.5312C34.2289 38.1546 32.521 38.8077 31.1134 40.0338C32.8096 39.3421 34.6411 38.9146 35.9692 37.5312ZM18.4808 45.6478C17.6474 45.7844 17.1674 46.4137 16.6256 46.957C16.5402 47.0431 16.3783 47.1441 16.5167 47.2866C16.6345 47.4053 16.7787 47.3222 16.8671 47.2183C17.3647 46.6572 17.9183 46.1495 18.4778 45.6478H18.4808ZM23.1628 47.4113C23.9726 47.2123 24.7146 46.8472 25.3831 46.3306C24.4908 46.3544 23.899 47.0283 23.1628 47.4113ZM28.2895 37.1808C29.1699 37.0472 30.0887 36.5188 30.2624 36.0557C29.591 36.3852 28.9373 36.6702 28.2895 37.1808ZM33.7106 34.4644C34.3526 34.3575 34.9621 34.1824 35.4244 33.6836C34.7707 33.7578 34.1877 33.9953 33.7106 34.4644ZM39.8297 31.4719C39.1877 31.4808 38.64 31.6916 38.1924 32.3952C38.852 32.1131 39.3909 31.9053 39.8297 31.4719ZM41.8939 34.215C41.9233 34.2714 41.9528 34.3308 41.9852 34.3872C42.5005 34.4139 42.8008 34.028 43.1748 33.7875C43.1454 33.7341 43.1159 33.6777 43.0865 33.6243C42.6889 33.8202 42.2914 34.0191 41.8939 34.215ZM22.8301 47.6725C22.8418 47.6369 22.8477 47.6131 22.8536 47.5923C22.8389 47.5953 22.8124 47.6013 22.8124 47.6042C22.8124 47.622 22.8183 47.6398 22.8301 47.6725ZM25.7099 46.2059C25.7276 46.2119 25.7482 46.2237 25.7659 46.2237C25.7718 46.2237 25.7777 46.1941 25.7836 46.1792C25.7659 46.1733 25.7453 46.1614 25.7276 46.1614C25.7217 46.1614 25.7158 46.1911 25.7099 46.2059Z" fill="white"/>
<path d="M93.8586 79.8457C94.3827 80.3741 94.9187 80.8937 95.1601 81.6329C95.2014 81.7576 95.2603 81.8852 95.3368 81.9921C96.4764 83.5507 96.3027 85.24 95.646 86.8728C95.0188 88.4284 93.9705 89.7703 92.7926 90.9311C91.6383 92.0652 90.2249 92.9083 88.888 93.8346C87.5805 94.743 86.2554 95.6277 84.9009 96.4501C82.9957 97.6049 81.1818 98.9142 79.1411 99.8553C78.2607 100.262 77.3507 100.704 76.6293 101.429C76.4467 101.613 76.0993 101.622 75.8431 101.785C74.3707 102.711 72.9013 103.646 71.3996 104.522C69.6828 105.523 67.9896 106.583 66.161 107.363C65.0744 107.826 63.9495 108.2 62.8688 108.69C61.1933 109.45 59.5031 110.178 57.801 110.881C57.1709 111.143 56.5142 111.422 55.7987 111.178C56.0342 110.727 55.9312 110.311 55.5513 110.038C54.556 109.32 54.5972 108.266 54.7621 107.283C54.9948 105.903 55.8369 104.78 56.6467 103.673C57.3741 102.676 58.3429 101.969 59.3706 101.313C60.6132 100.52 61.8029 99.6445 63.0396 98.8459C64.3088 98.0265 65.5485 97.1626 66.8029 96.3254C68.2782 95.3368 69.7446 94.3363 71.2877 93.4635C72.5215 92.7688 73.7435 92.0414 74.9803 91.3527C75.8254 90.8806 76.697 90.3849 77.5569 89.9781C78.6788 89.4467 79.7094 88.755 80.8372 88.2325C82.0593 87.6684 83.2725 87.042 84.4562 86.3651C85.4928 85.7714 86.703 85.4983 87.772 84.952C89.7007 83.9664 91.7001 83.0846 93.2844 81.5112C93.7791 81.0184 94.05 80.5374 93.8586 79.8457Z" fill="white"/>
<path d="M93.8585 79.8452C94.0499 80.534 93.779 81.0179 93.2843 81.5107C91.7001 83.0842 89.7006 83.9659 87.7719 84.9515C86.7029 85.4978 85.4927 85.7709 84.4562 86.3647C83.2753 87.0416 82.0592 87.668 80.8371 88.232C79.7093 88.7516 78.6787 89.4433 77.5568 89.9777C76.6969 90.3874 75.8253 90.8832 74.9802 91.3522C73.7434 92.041 72.5214 92.7683 71.2876 93.463C69.7416 94.3329 68.2781 95.3363 66.8028 96.3249C65.5484 97.1621 64.3087 98.026 63.0395 98.8454C61.8028 99.644 60.6131 100.52 59.3705 101.312C58.3428 101.969 57.374 102.675 56.6466 103.673C55.8398 104.783 54.9947 105.902 54.762 107.283C54.5971 108.268 54.5559 109.322 55.5512 110.038C55.9311 110.314 56.0341 110.726 55.7986 111.178C55.5542 111.581 55.2008 111.534 54.8592 111.371C53.755 110.845 52.9776 110.023 52.3739 108.93C51.5582 107.455 51.0459 105.932 50.9958 104.246C50.9546 102.812 51.3462 101.731 52.7479 100.98C54.0347 100.291 55.1242 99.2284 56.3316 98.3734C57.0942 97.8331 57.851 97.2809 58.6814 96.8385C59.0642 96.6337 59.4529 96.411 59.7768 96.126C60.354 95.6184 61.0048 95.2532 61.6585 94.8583C62.8776 94.1221 64.0613 93.3176 65.2451 92.519C66.3022 91.8065 67.3505 91.085 68.3517 90.2953C69.5031 89.3869 70.7811 88.6685 71.8382 87.6056C72.4183 87.0237 73.0632 86.3795 73.8965 86.0826C74.1616 85.9876 74.3117 85.8273 74.3471 85.5512C75.2717 84.9308 76.2994 84.4439 77.015 83.5473C77.4979 82.9447 78.1869 82.6389 78.8259 82.3242C79.8654 81.8106 80.8489 81.199 81.8972 80.6973C83.349 80.0026 84.7624 79.2366 86.3407 78.8626C86.4497 78.8359 86.5675 78.8388 86.6264 78.7201C87.1976 78.7349 87.7041 78.4737 88.2459 78.3579C89.521 78.0877 90.8137 77.6721 92.0623 78.444C92.7101 78.8418 93.355 79.2515 93.8526 79.8452H93.8585Z" fill="#28293D"/>
<path d="M139.398 0.985385C139.828 0.394598 140.387 0.240222 141.103 0.34116C142.139 0.489599 143.194 0.519287 144.23 0.664757C145.691 0.866634 147.084 1.35351 148.468 1.83446C149.083 2.04821 149.607 2.5054 150.205 2.81118C150.708 3.06947 150.829 3.6276 150.917 4.24213C151.253 6.55184 150.467 8.69233 149.993 10.8625C149.701 12.2014 148.977 13.4335 148.35 14.6685C148.294 14.7783 148.152 14.8436 148.052 14.9297C147.357 15.1405 146.763 14.9535 146.238 14.4666C146.144 14.3805 146.009 14.3241 145.882 14.2914C144.504 13.9203 143.691 12.7982 143.085 11.7056C142.396 10.4647 141.627 9.26234 140.976 7.99467C140.325 6.72403 139.486 5.5009 139.439 4.04026C139.407 3.0279 138.915 2.00664 139.395 0.985385H139.398Z" fill="#28293D"/>
<path d="M60.5131 31.9473C61.5379 32.0482 61.9619 32.737 61.5997 33.6959C61.373 34.2926 60.946 34.7171 60.4484 35.0764C58.5991 36.4123 56.6821 37.6384 54.7563 38.8615C53.6992 39.5325 52.6685 40.242 51.579 40.8566C49.6738 41.9283 47.7539 42.9733 45.8487 44.0391C43.8433 45.1613 41.8292 46.2686 39.8474 47.4354C37.5653 48.7773 35.3185 50.1934 32.9186 51.3126C31.5876 51.9331 30.4009 52.7703 29.1376 53.4857C28.5752 53.8034 27.945 53.9697 27.4091 54.3467C26.9703 54.6554 26.5021 54.7059 26.0811 54.2784C26.1282 53.4947 26.8584 53.275 27.3296 52.9632C29.4733 51.556 31.302 49.6946 33.5546 48.4655C35.2331 47.5482 36.7349 46.3666 38.3397 45.3454C39.7414 44.4547 41.1342 43.5255 42.5123 42.5874C43.4959 41.9164 44.4411 41.1386 45.563 40.6844C45.8634 40.5627 45.9341 40.2539 46.1785 40.1114C48.0071 39.0931 49.7091 37.8581 51.5142 36.8042C52.2209 36.3915 52.8217 35.8156 53.5667 35.492C54.1379 35.2426 54.6061 34.9071 54.9713 34.4084C55.9725 34.0492 56.7263 33.2773 57.6568 32.7874C58.4342 32.3777 59.1615 31.9562 60.0803 32.0868C60.2157 32.1076 60.3689 32.0007 60.5161 31.9502L60.5131 31.9473Z" fill="#28293D"/>
<path d="M17.7447 52.9484C17.9655 52.2686 18.4072 51.8619 19.0933 51.6095C20.4037 51.1256 21.7052 50.6031 22.9656 49.9975C23.8637 49.564 24.6676 48.9376 25.5834 48.516C28.0716 47.3701 30.3096 45.7788 32.5947 44.3004C33.7254 43.5701 34.918 42.8843 36.0016 42.0441C36.5729 41.6018 37.3267 41.2693 37.9687 40.8863C39.1495 40.1797 40.4746 39.6246 41.3639 38.4816C41.3904 38.446 41.4228 38.4074 41.4611 38.3895C42.4976 37.867 43.3633 37.0655 44.3851 36.5281C44.6825 36.3708 44.9564 36.1956 45.2303 36.0086C46.3345 35.2664 47.4093 34.4648 48.5725 33.8295C49.5589 33.2892 50.6131 32.8943 51.5495 32.2293C53.6668 30.7242 55.6073 29.0468 57.165 26.9479C57.2298 26.8588 57.3034 26.7727 57.3888 26.7074C57.5626 26.5768 57.7068 26.3482 57.9689 26.4521C58.2222 26.5501 58.0543 26.8262 58.1603 26.9924L58.1662 27.0013C58.0632 27.0904 58.0514 27.1943 58.1073 27.313C57.9689 28.3491 57.3005 29.1091 56.7911 29.9612C56.3935 30.6292 55.7693 31.0062 55.2009 31.4604C54.6414 31.9829 54.0142 32.449 53.5401 33.0398C52.9453 33.785 52.1738 34.3223 51.5289 34.9933C51.0637 35.4772 50.3334 35.5009 49.9653 36.0056C49.235 37.0002 48.066 37.3327 47.1502 38.0422C46.7762 38.3331 46.3227 38.5202 45.9075 38.7547C45.6661 38.8467 45.4217 38.8764 45.3392 39.2267C45.2538 39.5919 44.8268 39.6513 44.5383 39.7403C43.6843 40.0046 43.0777 40.6488 42.3621 41.1119C41.6378 41.581 40.8927 42.0026 40.1625 42.4449C39.1024 43.0862 37.9392 43.5077 36.9057 44.1935C36.2961 44.6002 35.6012 44.8912 34.8768 45.093C34.5205 45.191 34.2054 45.4434 33.8579 45.5918C31.5464 46.5774 29.3614 47.8154 27.1176 48.9406C26.5993 49.1989 26.0398 49.3711 25.5009 49.5878C24.4674 50.0064 23.5692 50.6773 22.5356 51.1137C20.9544 51.7817 19.4909 52.7436 17.7388 52.9544L17.7447 52.9484Z" fill="#28293D"/>
<path d="M86.7471 33.5918C87.0151 34.5419 87.6276 35.2039 88.3373 35.8719C88.9115 36.4122 89.2089 37.2494 89.63 37.956C89.6035 38.1519 89.6211 38.3241 89.8538 38.3835C90.2484 39.0099 90.6076 39.6422 91.064 40.2449C91.9121 41.3611 93.0134 42.2607 93.7113 43.5046C94.1324 44.2557 94.5976 45.0098 95.2838 45.5738C95.3338 45.6154 95.3898 45.6599 95.4133 45.7163C96.0052 47.1324 97.1713 48.127 98.0576 49.3264C98.6436 50.119 99.1825 50.9592 99.8068 51.7103C100.243 52.2328 100.593 52.8622 101.191 53.257C101.37 53.3758 101.529 53.5628 101.632 53.7528C101.962 54.3584 102.439 54.8275 102.981 55.2253C103.602 55.6796 104.2 56.1486 104.498 56.8938C104.704 57.4044 105.196 57.5885 105.593 57.8616C106.6 58.5563 106.656 58.6602 106.197 59.7527C106.161 59.7468 106.138 59.7587 106.126 59.7943C104.91 59.4796 103.676 59.2272 102.816 58.1436C102.501 57.7488 102.074 57.4074 101.63 57.1639C100.369 56.4692 99.5565 55.2461 98.3816 54.4564C97.3274 53.7469 96.8739 52.5683 96.1377 51.6094C95.7048 51.0453 95.4251 50.3654 94.8833 49.8845C94.2178 49.2967 93.8585 48.4773 93.3344 47.7826C92.1477 46.2062 91.3408 44.3834 90.0481 42.8574C89.309 41.9846 88.8114 40.8475 88.3549 39.7253C87.8367 38.4547 87.4921 37.0802 86.6029 35.9639C86.3349 35.6255 86.2112 35.1653 86.1523 34.7022C86.117 34.432 86.1877 34.0965 85.8932 33.9006C85.8755 33.8323 85.8608 33.764 85.8431 33.6958C85.6517 33.0782 85.266 32.5557 85.0422 31.9471C84.7536 31.1604 84.3531 30.4153 83.9674 29.6701C83.24 28.257 82.7012 26.7666 82.0916 25.303C81.7618 24.5074 81.27 23.7504 80.9255 22.9666C80.525 22.0581 80.1305 21.0992 80.0186 20.078C80.0981 19.7217 80.4279 19.8167 80.6517 19.7188C80.9962 21.6989 81.8708 23.498 82.5363 25.3713C82.9544 26.5469 83.5404 27.6454 83.8967 28.8626C84.2088 29.9254 84.9803 30.8487 85.5339 31.8432C85.796 32.3153 85.9992 32.8259 86.5292 33.0723C86.5616 33.2653 86.597 33.4583 86.7471 33.6037V33.5918Z" fill="#28293D"/>
<path d="M21.9142 89.307C21.8582 90.9072 20.8865 91.6791 19.738 92.3203C17.8652 93.3683 15.7392 93.5613 13.7221 94.1224C12.6679 94.4163 11.5842 94.6003 10.5212 94.8705C9.94406 95.016 9.39046 95.0427 8.81625 94.8824C7.99468 94.6538 7.9299 94.4667 8.35688 93.7186C9.21967 92.2105 10.2091 90.7944 11.3575 89.497C12.3793 88.3392 13.2333 86.9646 14.5054 86.1067C15.9217 85.1507 17.5148 84.3343 19.3287 84.6282C20.2651 84.7796 20.8129 85.5604 21.2781 86.362C21.8376 87.3239 21.5961 88.4461 21.9171 89.3129L21.9142 89.307Z" fill="#FA8E6D"/>
<path d="M146.012 18.8457C145.108 19.4751 144.628 19.49 143.659 18.8042C143.25 18.5132 142.864 18.1659 142.363 18.0115C141.995 17.8987 141.913 17.5009 141.662 17.2574C141.029 16.6459 140.305 16.1679 139.616 15.6395C139.159 15.2891 138.962 14.7548 138.712 14.256C138.255 13.3446 137.569 12.5876 136.974 11.7682C136.38 10.9547 136.153 9.97206 135.723 9.0844C135.055 7.70688 134.575 6.24921 134.109 4.78857C133.856 3.99294 134.071 3.09934 133.688 2.34527C133.382 1.74855 133.423 1.19042 133.615 0.599629C134.192 -0.103972 135.243 -0.332567 135.699 0.715411C135.909 1.63573 136.238 2.46996 136.969 3.1409C137.31 3.45559 137.475 3.96029 137.634 4.43529C138.002 5.52483 138.37 6.61734 138.709 7.71876C139.189 9.2833 140.037 10.643 141.068 11.9018C141.412 12.3233 141.651 12.831 141.93 13.306C142.428 14.1432 143.279 14.6598 143.821 15.4613C144.174 15.9838 144.622 16.4707 145.225 16.6756C146.041 16.9546 146.353 17.486 146.294 18.3084C146.2 18.4865 146.106 18.6676 146.012 18.8457Z" fill="#28293D"/>
<path d="M10.4594 55.124C9.90286 55.3586 9.26681 55.4209 8.81921 55.9167C9.13135 55.8187 9.44643 55.7237 9.75562 55.6169C9.92936 55.5575 10.162 55.4536 10.2444 55.6287C10.3534 55.8573 10.1031 55.985 9.92936 56.0711C9.31098 56.3828 8.64842 56.5639 7.98882 56.7717C5.7332 57.4842 3.41279 57.4605 1.08944 57.4813C0.662464 57.4842 0.312048 57.3358 0.120644 57.0003C-0.0854833 56.6352 -0.0413132 56.2551 0.264933 55.8811C0.962821 55.032 1.86684 54.3819 2.46461 53.4437C3.63659 51.6031 5.40045 50.469 7.30271 49.5932C9.24914 48.6937 11.9229 49.8277 12.6974 52.0128C13.1184 53.1943 12.2939 55.035 11.119 55.4684C10.8128 55.5812 10.4712 55.6703 10.4623 55.1359C10.5212 55.1151 10.5831 55.0973 10.642 55.0795C10.6302 55.0617 10.6066 55.0261 10.6066 55.029C10.5536 55.0587 10.5036 55.0944 10.4535 55.127L10.4594 55.124ZM12.185 53.1082C12.2115 52.7995 12.3145 52.4878 12.1114 52.1968C12.0996 52.179 11.9553 52.2176 11.9523 52.2414C11.8993 52.5382 11.9052 52.8351 12.0819 53.0993C12.0907 53.1112 12.1231 53.1053 12.185 53.1082ZM3.6837 55.7534C3.73376 55.7089 3.84566 55.6525 3.86922 55.5694C3.88983 55.4922 3.78382 55.4269 3.68665 55.4387C3.56886 55.4506 3.48641 55.5308 3.47463 55.6466C3.45991 55.7712 3.55414 55.7742 3.6837 55.7534ZM2.82975 56.2047C2.98287 56.1512 3.12127 56.1631 3.20077 55.9553C3.03587 55.9612 2.89158 55.9375 2.82975 56.2047Z" fill="#FA8E6D"/>
<path d="M38.6665 118C37.5593 118.009 37.309 117.578 37.7301 116.756C38.8961 114.473 40.5452 112.594 42.5181 111.002C43.3014 110.373 44.2172 109.934 45.1477 109.557C45.6954 109.334 46.2313 109.346 46.7702 109.634C47.3179 109.928 47.9687 109.981 48.4575 110.424C48.9169 110.839 49.2761 111.267 49.0582 111.947C49.0199 112.068 49.0347 112.217 49.0582 112.344C49.3291 113.882 48.7903 114.88 47.474 115.738C45.5482 116.993 43.3838 117.308 41.193 117.587C40.286 117.703 39.385 117.878 38.6665 117.997V118ZM39.6883 116.688C39.4409 116.533 39.2112 116.848 38.9727 116.688C38.4868 116.37 38.3838 116.747 38.2748 117.133C38.7283 116.919 39.3202 117.219 39.6883 116.685V116.688Z" fill="#FA8E6D"/>
<path d="M146.297 18.3053C146.356 17.483 146.044 16.9516 145.228 16.6725C144.628 16.4677 144.177 15.9838 143.824 15.4583C143.282 14.6567 142.428 14.1401 141.933 13.3029C141.654 12.8309 141.415 12.3203 141.071 11.8987C140.04 10.64 139.192 9.28025 138.712 7.71571C138.373 6.61429 138.008 5.52475 137.637 4.43224C137.478 3.95723 137.313 3.45551 136.972 3.13785C136.244 2.46691 135.911 1.63268 135.702 0.71236C136.324 0.531265 136.927 0.718298 137.537 0.792517C138.155 0.869705 138.759 1.10721 139.398 0.982519C138.915 2.00378 139.407 3.02504 139.442 4.03739C139.489 5.49803 140.328 6.72117 140.979 7.9918C141.63 9.25947 142.399 10.4618 143.088 11.7028C143.694 12.7983 144.507 13.9205 145.885 14.2886C146.012 14.3212 146.147 14.3776 146.241 14.4637C146.766 14.9506 147.36 15.1347 148.055 14.9269C147.77 15.6661 147.407 16.3608 146.969 17.0199C146.704 17.4206 146.518 17.8719 146.297 18.3024V18.3053Z" fill="white"/>
<path d="M45.9104 38.7513C46.3285 38.5168 46.7791 38.3298 47.1531 38.0388C48.0688 37.3293 49.2379 36.9997 49.9682 36.0022C50.3362 35.5005 51.0695 35.4738 51.5318 34.9899C52.1767 34.3189 52.9452 33.7816 53.543 33.0364C54.0171 32.4456 54.6443 31.9795 55.2038 31.457C55.2833 32.4516 54.98 33.4164 54.9712 34.405C54.606 34.9038 54.1349 35.2393 53.5636 35.4886C52.8186 35.8152 52.2179 36.3882 51.5112 36.8008C49.7061 37.8577 48.007 39.0898 46.1754 40.1081C46.037 39.6657 46.1401 39.1729 45.9104 38.7484V38.7513Z" fill="white"/>
<path d="M126.344 45.3807C126.262 44.5465 126.577 44.3387 127.46 44.6444C128.014 45.443 127.961 45.7221 127.204 45.9329C126.721 46.0695 126.58 45.6449 126.344 45.3807Z" fill="#28293D"/>
<path d="M102.154 7.58846C102.304 7.99519 102.734 8.40191 102.192 8.81754C101.733 9.17082 101.359 9.02535 101.214 8.45832C101.179 8.31582 101.247 8.12581 101.044 8.05753C101.253 7.51425 101.633 7.38659 102.151 7.58846H102.154Z" fill="#28293D"/>
<path d="M58.1075 27.3098C58.0542 27.191 58.0631 27.0841 58.1667 26.998C58.2437 27.1198 58.2111 27.2237 58.1075 27.3098Z" fill="white"/>
<path d="M34.9503 69.0272C34.8178 69.134 34.6823 69.2409 34.5498 69.3448C34.9297 67.2667 34.9238 65.0668 36.3902 63.3301C36.134 65.239 35.4155 67.0292 35.0975 68.9143L35.1005 68.9084C35.0504 68.947 35.0003 68.9856 34.9473 69.0242L34.9503 69.0272Z" fill="#FA8E6D"/>
<path d="M39.279 65.6392C39.011 65.847 38.7431 66.0519 38.4751 66.2597C38.3544 65.2444 38.9374 64.3686 39.0376 63.3978C39.1112 62.6794 39.3791 62.0144 39.5588 61.3256C39.653 60.9604 39.8385 60.6754 40.3303 60.6279C40.0387 61.854 39.9416 63.0683 39.5853 64.235C39.5175 64.4606 39.4586 64.6447 39.2525 64.7813C38.8079 65.0722 38.8432 65.3661 39.279 65.6392Z" fill="#FA8E6D"/>
<path d="M95.1602 57.5586C94.7715 58.1702 94.315 58.473 93.8792 58.7699C93.2373 59.2092 92.5836 59.6308 92.0035 60.1474C91.6207 60.4888 91.3527 60.1266 91.2143 59.9633C90.9228 59.6249 91.3645 59.6902 91.5147 59.5892C92.6248 58.847 93.7938 58.2117 95.1602 57.5586Z" fill="#FA8E6D"/>
<path d="M36.679 72.8808C36.8674 71.9901 37.1325 71.1054 37.212 70.2059C37.2591 69.6567 37.5683 69.431 37.904 69.149C37.9953 69.0718 38.1072 69.0213 38.2102 69.0837C38.3368 69.1579 38.2603 69.2737 38.2338 69.3806C38.0541 70.1168 37.8362 70.8382 37.53 71.5329C37.318 72.0139 37.2444 72.5661 36.6731 72.8808H36.679Z" fill="#FA8E6D"/>
<path d="M82.8456 42.005C83.199 41.9783 83.5376 42.005 83.785 42.3078C82.9516 42.7591 82.1242 43.2252 81.282 43.6586C80.6312 43.9911 79.9628 44.288 79.2178 44.6383C79.2914 44.196 79.6183 44.1217 79.8303 43.9941C80.7284 43.4627 81.5588 42.8125 82.5423 42.4266C82.7308 42.3524 82.7838 42.1742 82.8456 42.005Z" fill="#FA8E6D"/>
<path d="M32.2972 80.8818C32.3443 81.1728 32.2736 81.3182 32.1617 81.3657C31.3078 81.7398 30.445 82.0931 29.5851 82.4553C29.4585 82.5087 29.2936 82.5918 29.2229 82.4553C29.1258 82.2564 29.3201 82.2059 29.4644 82.1406C30.389 81.7339 31.3137 81.3212 32.2972 80.8848V80.8818Z" fill="#FA8E6D"/>
<path d="M90.1453 49.8101C90.2395 49.4479 90.3367 49.0857 90.4309 48.7205C90.693 48.5543 90.8844 48.204 91.2966 48.4504C91.5116 48.578 91.5263 48.7769 91.5705 48.958C91.6176 49.151 91.4291 49.2015 91.2819 49.2668C90.8991 49.439 90.5222 49.626 90.1453 49.8101Z" fill="#FA8E6D"/>
<path d="M39.2467 77.0694C38.8963 76.6805 38.5429 76.2916 38.1925 75.9027C38.0394 75.7305 38.0276 75.5286 38.1483 75.3446C38.2161 75.2407 38.3545 75.1011 38.4428 75.113C38.6843 75.1457 38.696 75.3891 38.7284 75.5821C38.7579 75.7454 38.7932 75.9146 38.9611 75.9562C39.5971 76.1016 39.3674 76.5707 39.2467 77.0724V77.0694Z" fill="#FA8E6D"/>
<path d="M33.0511 82.3096C32.2501 82.9449 30.6188 83.509 29.9238 83.3783C30.9986 83.1052 31.9321 82.4432 33.0511 82.3096Z" fill="#FA8E6D"/>
<path d="M55.1951 58.99C55.0537 59.2483 54.7828 59.2868 54.5914 59.4412C54.1468 59.8004 53.6845 60.1359 53.228 60.4773C53.1132 60.5634 52.9689 60.6228 52.8717 60.4803C52.7716 60.3289 52.9159 60.2725 53.016 60.1745C53.5225 59.6758 54.2498 59.4976 54.7298 58.9573C54.8123 58.8653 54.9566 58.794 55.1009 58.8475C55.145 58.8653 55.1656 58.9454 55.1951 58.99Z" fill="#FA8E6D"/>
<path d="M29.2554 80.9672C29.9562 80.4269 30.8219 80.32 31.5552 79.9073C31.6347 79.8628 31.7348 79.842 31.7878 79.94C31.8349 80.0231 31.8172 80.1359 31.723 80.1656C30.8926 80.4209 30.1653 80.9909 29.2554 80.9642V80.9672Z" fill="#FA8E6D"/>
<path d="M85.8432 33.6895C85.8609 33.7577 85.8756 33.826 85.8933 33.8943C85.481 34.6335 84.7154 34.8354 83.9822 35.0996C84.6094 34.6365 85.0776 33.9745 85.8432 33.6924V33.6895Z" fill="#FA8E6D"/>
<path d="M69.5857 40.3994C70.1894 39.77 70.9403 39.4286 71.7942 39.2861C71.1582 39.8532 70.4485 40.2807 69.5828 40.3965H69.5857V40.3994Z" fill="#FA8E6D"/>
<path d="M85.1188 46.3812C84.9215 46.3812 84.7507 46.313 84.8155 46.2298C85.0128 45.9834 85.1571 45.648 85.5251 45.5975C85.6665 45.5767 85.8196 45.642 85.7843 45.8112C85.6989 46.2001 85.2955 46.2001 85.1188 46.3812Z" fill="#FA8E6D"/>
<path d="M57.6184 71.6544C57.4594 71.9572 57.1413 72.0196 56.8645 72.1353C56.735 72.1888 56.5141 72.0849 56.573 71.9869C56.6967 71.7732 56.8233 71.4911 57.1472 71.5C57.3092 71.506 57.5065 71.4228 57.6184 71.6544Z" fill="#FA8E6D"/>
<path d="M27.6946 86.8751C28.0273 86.7178 28.3571 86.5486 28.6958 86.4031C28.8136 86.3526 28.9902 86.32 29.0521 86.4654C29.1169 86.6228 28.9637 86.7059 28.8342 86.7445C28.4779 86.8484 28.1157 86.9375 27.7564 87.0354C27.7358 86.982 27.7152 86.9286 27.6946 86.8751Z" fill="#FA8E6D"/>
<path d="M24.485 82.835C24.6352 82.8736 24.7972 82.9537 24.7412 83.0992C24.6588 83.3159 24.5763 83.598 24.276 83.592C24.1022 83.592 23.9933 83.4317 24.0286 83.2506C24.0787 83.0072 24.2436 82.8647 24.485 82.832V82.835Z" fill="#FA8E6D"/>
<path d="M47.7332 90.7316C48.1866 90.5357 48.5105 90.8504 48.8256 90.6604C48.9287 90.601 49.0111 90.7435 49.0053 90.8711C48.9964 91.0849 48.8462 91.1532 48.6843 91.1057C48.3986 91.0196 48.1277 90.889 47.7332 90.7286V90.7316Z" fill="#FA8E6D"/>
<path d="M47.4622 86.6434C47.7625 86.5662 48.0364 86.299 48.3073 86.5455C48.3662 86.5989 48.3367 86.8809 48.2808 86.9076C47.9539 87.0591 47.7861 86.6227 47.4622 86.6434Z" fill="#FA8E6D"/>
<path d="M51.3757 92.1477C51.6761 92.0913 51.9293 91.8033 52.1885 92.1299C52.2768 92.2397 52.2091 92.3525 52.109 92.409C51.8263 92.5693 51.6054 92.4683 51.3757 92.1477Z" fill="#FA8E6D"/>
<path d="M27.4532 87.1368C27.4384 87.1724 27.4296 87.2259 27.4031 87.2377C27.3796 87.2496 27.3354 87.214 27.3 87.1991C27.3148 87.1635 27.3236 87.1101 27.3501 87.0982C27.3766 87.0893 27.4178 87.1219 27.4532 87.1368Z" fill="#FA8E6D"/>
<path d="M69.5799 40.3965C69.571 40.4143 69.5621 40.4321 69.5532 40.4499C69.5621 40.4351 69.574 40.4173 69.5828 40.4024L69.5799 40.3995V40.3965Z" fill="#FA8E6D"/>
<path d="M128.456 25.6473C128.388 26.2351 128.52 26.811 128.55 27.3899C128.632 29.091 128.232 30.7268 127.631 32.2973C127.378 32.9564 127.195 33.6362 126.868 34.2864C126.347 35.3255 125.617 36.1478 124.804 36.9078C124.224 37.4511 124.168 37.4986 124.766 38.0389C125.178 38.41 125.181 38.9919 125.514 39.4372C125.873 39.9182 126.374 40.1468 126.798 40.4793C127.345 40.9068 127.828 41.4412 128.568 41.649C129.239 41.839 128.868 42.4119 128.762 42.8454C128.768 42.8751 128.756 42.8899 128.727 42.8929C128.102 43.3085 126.854 43.2462 126.221 42.7712C124.789 41.6965 123.544 40.4258 122.407 39.0483C122.198 38.793 122.101 38.7307 121.842 38.9385C120.258 40.2091 118.341 40.3872 116.456 40.3605C114.527 40.3308 112.572 40.1408 110.696 39.6777C109.124 39.2888 107.584 38.6535 106.247 37.7064C105.522 37.1928 104.742 36.6436 104.365 35.7441C104.318 35.6342 104.177 35.563 104.077 35.4769C104.083 35.2513 104.035 35.0553 103.82 34.9366C103.806 34.2923 103.232 33.9717 102.978 33.4611C102.389 32.2617 102.38 30.9465 102.204 29.6729C102.11 28.9842 102.095 28.2835 101.936 27.5977C101.886 27.384 101.898 27.1406 101.936 26.9238C102.269 25.0773 102.569 23.2425 103.567 21.5771C104.465 20.0808 105.779 19.012 106.939 17.78C107.183 17.5187 107.796 17.6167 107.699 17.0734C107.631 16.7023 107.339 16.3995 107.171 16.0611C106.639 14.9745 106.17 13.8582 105.944 12.6529C105.873 12.2759 105.743 11.9167 105.564 11.5693C105.234 10.934 105.137 10.2452 105.154 9.53273C105.157 9.3932 105.14 9.2507 105.281 9.17648C105.443 9.09336 105.505 9.24476 105.605 9.33086C106.509 10.1146 106.777 11.2665 107.325 12.2581C107.819 13.1606 108.049 14.1848 108.691 15.0279C108.944 15.3604 109.062 15.8592 109.3 16.254C109.398 16.4144 109.451 16.5212 109.698 16.4203C111.144 15.8265 112.693 15.7553 114.215 15.589C115.873 15.4079 117.572 15.2268 119.18 15.7375C120.249 16.0759 121.312 16.4945 122.328 17.0437C124.436 18.1838 125.691 20.1135 127.095 21.9125C127.775 22.7824 128.029 23.8749 128.394 24.9021C128.414 25.1515 128.435 25.4009 128.456 25.6473ZM127.213 26.3657C127.275 26.339 127.343 26.3182 127.316 26.2262C127.472 25.0891 126.913 24.1302 126.497 23.1535C126.374 22.8655 126.374 22.4944 126.094 22.2688C125.255 21.5889 124.789 20.6063 124.106 19.7988C124.083 19.6414 123.986 19.5464 123.847 19.4841C123.179 18.9675 122.628 18.3173 121.874 17.8898C120.92 17.3466 119.863 17.0764 118.877 16.6192C118.276 16.3431 117.525 16.2481 116.859 16.3015C115.243 16.4351 113.626 16.5509 112.024 16.9012C110.693 17.1922 109.483 17.6702 108.311 18.3292C107.254 18.923 106.533 19.8908 105.681 20.7161C103.929 22.4113 103.311 24.5815 103.184 26.9327C103.126 28.0282 103.446 29.1059 103.517 30.1954C103.611 31.6828 103.971 33.0365 105.031 34.132C105.137 34.3042 105.104 34.5417 105.287 34.6753C105.458 35.0672 105.726 35.3938 105.991 35.7263C106.901 36.8692 108.249 37.2581 109.492 37.846C110.555 38.3507 111.692 38.5703 112.831 38.7396C113.788 38.8821 114.763 38.8524 115.732 38.983C117.207 39.1819 118.762 39.075 120.052 38.3863C121.768 37.466 123.618 36.6555 124.913 35.085C125.564 34.2983 126.229 33.4878 126.106 32.3448C126.25 32.0747 126.394 31.8015 126.539 31.5314C126.645 31.4779 126.665 31.3829 126.653 31.2731C126.91 30.8604 126.936 30.3676 126.992 29.9164C127.119 28.9129 127.587 27.9213 127.189 26.8823C127.204 26.7071 127.216 26.529 127.231 26.3538L127.219 26.3627L127.213 26.3657Z" fill="#28293D"/>
<path d="M119.212 5.8842C122.007 5.46263 124.642 3.88918 127.619 4.75903C124.789 4.9431 122.11 6.19592 119.212 5.8842Z" fill="#FA8E6D"/>
<path d="M103.821 34.9366C104.035 35.0553 104.083 35.2513 104.077 35.4769C103.208 36.0172 102.345 36.5694 101.474 37.0889C100.246 37.8222 99.1709 38.7574 97.9754 39.5233C97.5307 39.8083 97.1332 40.1735 96.7209 40.5119C96.4382 40.7465 96.1732 41.0077 95.7668 41.0077C96.2704 40.5654 96.5649 39.9597 97.2009 39.6213C98.0372 39.176 98.6997 38.4249 99.4889 37.9113C100.552 37.2196 101.521 36.3972 102.616 35.7589C103.034 35.5155 103.42 35.2097 103.821 34.9336V34.9366Z" fill="#FA8E6D"/>
<path d="M105.19 15.4406C105.172 15.8919 105.045 16.2303 104.501 16.2214C103.841 16.2125 103.208 15.4733 103.234 14.6658C103.246 14.2709 103.361 13.8791 103.873 13.8731C104.63 13.8642 105.196 14.547 105.19 15.4377V15.4406Z" fill="#28293D"/>
<path d="M113.853 13.3207C114.254 13.1188 114.639 12.8665 115.06 12.7299C115.867 12.4657 116.615 12.0263 117.416 11.7977C118.111 11.5988 118.765 11.0733 119.569 11.3316C119.66 11.3613 119.787 11.3079 119.89 11.2723C120.019 11.2277 120.149 10.9932 120.272 11.2307C120.373 11.4266 120.252 11.5513 120.043 11.6315C118.046 12.4063 115.985 12.9585 113.918 13.4929C113.897 13.4335 113.874 13.3771 113.853 13.3177V13.3207Z" fill="#FA8E6D"/>
<path d="M123.087 42.7294C123.079 43.1361 122.549 43.05 122.128 43.0827C121.586 43.1243 121.029 42.6136 120.991 42.0763C120.964 41.7022 121.547 41.251 122.104 41.2153C122.725 41.1768 123.049 41.5894 123.087 42.7294Z" fill="#28293D"/>
<path d="M128.456 25.647C128.435 25.3976 128.414 25.1482 128.394 24.9018C128.638 24.7148 128.889 24.5426 128.974 24.2071C129.024 24.0082 129.195 23.8865 129.377 23.7767C130.199 23.2809 130.729 22.4793 131.465 21.8262C131.618 22.0043 131.512 22.1973 131.338 22.3843C130.652 23.1206 129.969 23.8628 129.277 24.5931C128.971 24.9196 128.656 25.2373 128.456 25.647Z" fill="#FA8E6D"/>
<path d="M109.265 51.1638C110.349 50.7987 110.838 49.8694 111.68 49.4004C111.83 49.3172 111.98 48.955 112.213 49.3172C112.378 49.5755 112.331 49.8368 112.086 49.9615C111.533 50.2405 111.103 50.7512 110.487 50.8877C110.128 50.9679 109.884 51.4488 109.265 51.1608V51.1638Z" fill="#FA8E6D"/>
<path d="M93.0547 29.1003C93.7791 28.4828 94.4622 27.8149 95.3103 27.3755C95.6961 27.1766 96.0376 26.9272 96.3557 26.6392C96.4617 26.5442 96.5235 26.2948 96.7061 26.47C96.8533 26.6125 96.6855 26.7639 96.5765 26.8708C95.8639 27.5684 94.9363 27.9722 94.209 28.652C93.9086 28.9341 93.5582 29.1983 93.0576 29.1003H93.0547Z" fill="#FA8E6D"/>
<path d="M86.7472 33.5915C86.597 33.4461 86.5617 33.2561 86.5293 33.0601C87.2007 32.8672 87.7072 32.3298 88.3815 32.1428C88.5435 32.0982 88.6966 32.0478 88.7614 32.2615C88.8026 32.4011 88.779 32.5347 88.62 32.5911C87.9486 32.8345 87.4333 33.3778 86.7443 33.5886L86.7472 33.5915Z" fill="#FA8E6D"/>
<path d="M89.8539 38.3832C89.6213 38.3238 89.6036 38.1516 89.6301 37.9557C90.0424 37.9052 90.2456 37.5401 90.5577 37.3352C90.8993 37.1096 91.2085 36.7949 91.7444 36.9136C91.2232 37.6083 90.4576 37.8933 89.8569 38.3832H89.8539Z" fill="#FA8E6D"/>
<path d="M34.9504 69.0269C35.0005 68.9883 35.0506 68.9497 35.1036 68.9111C35.0918 69.0002 35.0358 69.0358 34.9504 69.0269Z" fill="white"/>
<path d="M25.3449 42.5786C24.8708 43.205 24.1405 43.5049 23.5604 43.9977C22.6505 44.7725 21.561 45.2535 20.5186 45.8057C20.4302 45.8532 20.3066 45.8324 20.0798 45.8561C20.6246 45.1347 21.3372 44.8082 21.9526 44.3688C22.8243 43.7483 23.7489 43.2139 24.7059 42.73C24.9179 42.6231 25.1182 42.5697 25.3449 42.5756V42.5786Z" fill="#FA8E6D"/>
<path d="M35.9664 37.5312C34.6383 38.9147 32.8067 39.3422 31.1106 40.0339C32.5182 38.8078 34.229 38.1547 35.9664 37.5312Z" fill="#FA8E6D"/>
<path d="M18.4779 45.6475C17.9184 46.1522 17.3648 46.6568 16.8672 47.2179C16.7759 47.3189 16.6316 47.405 16.5168 47.2862C16.3784 47.1437 16.5403 47.0428 16.6257 46.9567C17.1675 46.4134 17.6475 45.784 18.4809 45.6475H18.4779Z" fill="#FA8E6D"/>
<path d="M23.1628 47.4117C23.8961 47.0287 24.4909 46.3548 25.3831 46.3311C24.7147 46.8476 23.9726 47.2128 23.1628 47.4117Z" fill="#FA8E6D"/>
<path d="M38.1983 39.5825C38.6783 39.0392 39.2996 38.7394 39.9975 38.582C39.4026 38.9234 39.0051 39.6241 38.1924 39.5766L38.1983 39.5825Z" fill="#FA8E6D"/>
<path d="M27.6417 43.2607C27.094 43.8872 26.4491 44.3414 25.5598 44.3533C26.2871 44.0504 26.8525 43.4507 27.6476 43.2667H27.6446L27.6417 43.2607Z" fill="#FA8E6D"/>
<path d="M28.2896 37.1808C28.9374 36.6732 29.5882 36.3882 30.2625 36.0557C30.0887 36.5158 29.17 37.0443 28.2896 37.1808Z" fill="#FA8E6D"/>
<path d="M33.7107 34.4644C34.1848 33.9923 34.7678 33.7578 35.4245 33.6836C34.9622 34.1823 34.3526 34.3575 33.7107 34.4644Z" fill="#FA8E6D"/>
<path d="M39.8326 31.4717C39.3938 31.9022 38.8549 32.1129 38.1953 32.395C38.6429 31.6914 39.1877 31.4806 39.8326 31.4717Z" fill="#FA8E6D"/>
<path d="M41.8967 34.2148C42.2943 34.0189 42.6918 33.82 43.0893 33.624C43.1188 33.6775 43.1482 33.7339 43.1777 33.7873C42.8007 34.0278 42.5033 34.4137 41.988 34.387C41.9586 34.3306 41.9291 34.2712 41.8967 34.2148Z" fill="#FA8E6D"/>
<path d="M38.1923 39.5771C38.1482 39.9245 37.9538 40.0225 37.624 39.9334C37.7124 39.6246 37.942 39.5861 38.1982 39.5831L38.1923 39.5771Z" fill="#FA8E6D"/>
<path d="M22.8335 47.6742C22.8245 47.641 22.8154 47.6229 22.8154 47.6048C22.8154 47.5988 22.8426 47.5958 22.8577 47.5928C22.8516 47.6169 22.8426 47.638 22.8335 47.6742Z" fill="#FA8E6D"/>
<path d="M25.7129 46.2093C25.7189 46.1942 25.725 46.1641 25.731 46.1641C25.7491 46.1641 25.7702 46.1731 25.7883 46.1822C25.7823 46.1972 25.7763 46.2274 25.7702 46.2274C25.7521 46.2274 25.731 46.2153 25.7129 46.2093Z" fill="#FA8E6D"/>
<path d="M27.6475 43.2644C27.6564 43.2466 27.6653 43.2288 27.6741 43.2109C27.6653 43.2288 27.6534 43.2436 27.6445 43.2614L27.6475 43.2644Z" fill="#FA8E6D"/>
<path d="M25.3448 42.5818C25.3629 42.5607 25.381 42.5426 25.3991 42.5215C25.3991 42.5335 25.3991 42.5516 25.3901 42.5577C25.378 42.5697 25.3569 42.5728 25.3418 42.5788L25.3448 42.5818Z" fill="#FA8E6D"/>
<path d="M12.1852 53.1086C12.1233 53.1027 12.088 53.1086 12.0821 53.0997C11.9025 52.8355 11.8995 52.5416 11.9525 52.2417C11.9584 52.215 12.0998 52.1794 12.1115 52.1972C12.3177 52.4911 12.2117 52.7998 12.1852 53.1086Z" fill="#FA8E6D"/>
<path d="M3.68373 55.7536C3.55417 55.7773 3.45994 55.7744 3.47466 55.6467C3.48644 55.5309 3.56595 55.4508 3.68668 55.4389C3.78385 55.427 3.88986 55.4923 3.86925 55.5695C3.84863 55.6497 3.73379 55.7061 3.68373 55.7536Z" fill="#FA8E6D"/>
<path d="M2.82983 56.2015C2.88873 55.9343 3.03596 55.9581 3.20086 55.9521C3.1243 56.16 2.9859 56.1481 2.82983 56.2015Z" fill="#FA8E6D"/>
<path d="M10.4595 55.1243C10.5095 55.0917 10.5625 55.0561 10.6126 55.0264C10.6126 55.0264 10.6362 55.059 10.6479 55.0768C10.589 55.0946 10.5272 55.1154 10.4683 55.1332L10.4595 55.1214V55.1243Z" fill="#FA8E6D"/>
<path d="M39.6883 116.688C39.3203 117.222 38.7284 116.926 38.2749 117.136C38.3839 116.747 38.4869 116.37 38.9728 116.691C39.2143 116.848 39.4439 116.534 39.6883 116.691V116.688Z" fill="#FA8E6D"/>
<path d="M126.106 32.3448C126.229 33.4878 125.564 34.2983 124.913 35.085C123.617 36.6555 121.768 37.466 120.051 38.3863C118.762 39.078 117.204 39.1849 115.732 38.983C114.763 38.8524 113.788 38.8791 112.831 38.7396C111.692 38.5704 110.555 38.3507 109.492 37.846C108.252 37.2582 106.901 36.8693 105.991 35.7263C105.729 35.3967 105.461 35.0702 105.287 34.6753C105.611 34.4853 105.935 34.2983 106.262 34.1083C106.933 34.5358 107.213 35.3047 107.793 35.848C108.653 36.6525 109.663 36.9969 110.684 37.3383C111.488 37.6055 112.283 37.938 113.176 37.9677C113.676 37.9855 114.2 38.1696 114.722 38.2022C115.961 38.2854 117.124 37.8371 118.311 37.5907C119.206 37.4036 120.013 36.9286 120.829 36.4625C121.768 35.9222 122.602 35.3047 123.167 34.4171C123.509 33.8827 123.832 33.3216 124.168 32.7783C124.404 32.3953 124.887 32.2647 125.037 31.7808C125.399 30.6289 125.908 29.5542 125.785 28.2509C125.673 27.0693 125.635 25.864 125.367 24.7181C125.01 23.1802 124.271 21.8087 122.887 20.9061C123.503 20.7755 123.703 20.1788 124.1 19.8018C124.784 20.6093 125.252 21.5919 126.088 22.2718C126.365 22.4974 126.368 22.8685 126.491 23.1565C126.907 24.1332 127.466 25.0921 127.31 26.2292C127.275 26.2767 127.242 26.3212 127.207 26.3687L127.219 26.3598C126.577 26.5498 126.536 27.3959 125.897 27.5978C125.891 27.5978 125.905 27.764 125.932 27.77C126.009 27.7878 126.097 27.7759 126.176 27.7551C126.65 27.6334 126.792 27.1168 127.181 26.8882C127.581 27.9273 127.11 28.9189 126.983 29.9223C126.927 30.3706 126.904 30.8634 126.645 31.2791C126.606 31.3651 126.568 31.4542 126.53 31.5403V31.5373C125.776 31.858 125.352 32.5734 124.745 33.0752C124.548 33.2384 124.198 33.4166 124.139 33.8649C124.934 33.4433 125.39 32.7308 126.094 32.3508L126.106 32.3448Z" fill="white"/>
<path d="M105.031 34.1318C103.971 33.0364 103.611 31.6796 103.517 30.1952C103.446 29.1057 103.128 28.031 103.184 26.9325C103.308 24.5813 103.929 22.4081 105.681 20.7159C106.532 19.8936 107.254 18.9258 108.311 18.329C109.48 17.67 110.693 17.192 112.024 16.901C113.629 16.5507 115.246 16.4349 116.859 16.3014C117.525 16.2479 118.279 16.3429 118.876 16.619C119.863 17.0732 120.92 17.3464 121.874 17.8896C122.625 18.3172 123.179 18.9673 123.847 19.4839C123.65 20.0153 123.176 20.235 122.737 20.4962C122.654 20.4665 122.563 20.4487 122.493 20.4012C121.456 19.7333 120.679 18.7031 119.451 18.2815C119.139 18.1747 118.779 18.2014 118.502 17.9817C117.454 17.1534 116.197 17.2989 115.051 17.4562C114.074 17.5898 113.09 17.8659 112.101 17.9253C111.412 17.9668 110.749 18.142 110.172 18.3825C108.429 19.1128 107.174 20.4487 106.279 22.1172C106.194 22.2745 106.12 22.4378 106.002 22.5625C105.284 23.3166 105.016 24.3171 104.742 25.2522C104.483 26.1339 104.424 27.1404 104.545 28.0577C104.795 29.9696 104.801 31.9617 105.885 33.6776C105.508 33.6509 105.304 33.9596 105.031 34.1318Z" fill="white"/>
<path d="M126.106 32.3447C125.399 32.7247 124.945 33.4372 124.15 33.8588C124.209 33.4105 124.56 33.2324 124.757 33.0691C125.364 32.5703 125.788 31.8519 126.541 31.5312C126.397 31.8014 126.253 32.0745 126.109 32.3447H126.106Z" fill="#FA8E6D"/>
<path d="M122.737 20.4997C123.176 20.2384 123.65 20.0157 123.847 19.4873C123.986 19.5496 124.083 19.6446 124.106 19.802C123.709 20.179 123.509 20.7758 122.893 20.9064C122.767 20.8025 122.743 20.657 122.737 20.5026V20.4997Z" fill="#FA8E6D"/>
<path d="M127.183 26.8849C126.798 27.1135 126.653 27.6301 126.179 27.7518C126.1 27.7726 126.014 27.7844 125.935 27.7666C125.911 27.7607 125.894 27.5974 125.9 27.5944C126.539 27.3925 126.58 26.5464 127.222 26.3564C127.207 26.5316 127.195 26.7097 127.181 26.8849H127.183Z" fill="#FA8E6D"/>
<path d="M105.031 34.1316C105.305 33.9624 105.505 33.6507 105.885 33.6774C106.011 33.8199 106.135 33.9654 106.262 34.1079C105.938 34.2979 105.614 34.4849 105.287 34.6749C105.104 34.5413 105.137 34.3038 105.031 34.1316Z" fill="#FA8E6D"/>
<path d="M126.536 31.5376C126.574 31.4515 126.613 31.3625 126.651 31.2764C126.663 31.3862 126.642 31.4812 126.536 31.5376Z" fill="#FA8E6D"/>
<path d="M127.213 26.3661C127.248 26.3186 127.281 26.2741 127.317 26.2266C127.346 26.3186 127.278 26.3394 127.213 26.3661Z" fill="#FA8E6D"/>
<path d="M106.261 34.1085C106.135 33.966 106.011 33.8205 105.885 33.678C104.801 31.962 104.795 29.97 104.545 28.0581C104.424 27.1407 104.483 26.1343 104.742 25.2526C105.016 24.3204 105.284 23.317 106.002 22.5629C106.12 22.4382 106.194 22.2749 106.279 22.1176C107.174 20.4491 108.429 19.1132 110.172 18.3828C110.749 18.1424 111.412 17.9642 112.101 17.9257C113.09 17.8692 114.074 17.5902 115.051 17.4566C116.197 17.2992 117.457 17.1538 118.502 17.9821C118.779 18.2017 119.139 18.175 119.451 18.2819C120.679 18.7035 121.456 19.7336 122.493 20.4016C122.566 20.4491 122.654 20.4669 122.737 20.4966C122.743 20.648 122.763 20.7965 122.893 20.9004C124.277 21.8029 125.016 23.1744 125.372 24.7123C125.637 25.8582 125.679 27.0635 125.791 28.2451C125.914 29.5484 125.405 30.6231 125.043 31.775C124.889 32.2589 124.409 32.3895 124.174 32.7725C123.838 33.3188 123.514 33.8769 123.173 34.4113C122.604 35.3019 121.771 35.9164 120.835 36.4568C120.022 36.9258 119.212 37.4008 118.317 37.5849C117.13 37.8313 115.967 38.2796 114.727 38.1965C114.206 38.1608 113.682 37.9768 113.181 37.9619C112.289 37.9322 111.491 37.5997 110.69 37.3325C109.668 36.9941 108.658 36.6497 107.799 35.8422C107.218 35.2989 106.939 34.5271 106.267 34.1025L106.261 34.1085ZM118.971 23.8068C117.784 23.4862 116.556 23.5188 115.346 23.406C114.197 23.2991 113.123 23.599 112.039 23.9552C111.432 24.1541 110.849 24.2966 110.472 24.8726C110.013 25.5762 109.489 26.2204 109.138 27.0101C108.461 28.5272 108.205 30.0561 108.567 31.683C108.455 32.06 108.647 32.2945 108.932 32.4875C109.604 33.5444 110.352 34.4439 111.742 34.5656C112.313 34.6131 112.928 34.7171 113.441 35.0466C113.982 35.3939 114.563 35.5216 115.199 35.4889C116.156 35.4385 117.101 35.195 118.043 35.1772C118.765 35.1624 119.309 34.8061 119.831 34.5152C120.475 34.153 121.067 33.5444 121.453 32.9002C122.092 31.8314 123.282 30.9734 122.646 29.3495C122.292 28.4529 122.007 27.5 121.689 26.5737C121.341 25.5673 120.449 25.027 119.763 24.3085C119.527 24.0948 119.262 23.9285 118.971 23.8068Z" fill="#28293D"/>
<path d="M108.57 31.6856C108.205 30.0587 108.464 28.5298 109.142 27.0127C109.495 26.2231 110.019 25.5788 110.475 24.8752C110.849 24.2993 111.433 24.1568 112.042 23.9579C113.126 23.6016 114.198 23.3018 115.349 23.4087C116.559 23.5215 117.784 23.4888 118.971 23.8094C118.956 24.041 118.288 24.0648 118.721 24.329C118.868 24.418 119.424 24.6348 119.763 24.3112C120.449 25.0266 121.341 25.567 121.689 26.5763C122.01 27.5026 122.292 28.4556 122.646 29.3521C123.285 30.9761 122.092 31.834 121.453 32.9028C121.067 33.547 120.476 34.1556 119.831 34.5178C119.31 34.8088 118.765 35.165 118.043 35.1799C117.101 35.1977 116.156 35.4411 115.199 35.4916C114.566 35.5242 113.983 35.3966 113.441 35.0492C112.925 34.7197 112.31 34.6158 111.742 34.5683C110.352 34.4495 109.601 33.547 108.932 32.4901C109.15 32.4812 109.295 32.3447 109.43 32.1933C109.63 31.9706 109.813 31.6381 109.692 31.4214C109.542 31.1453 109.289 31.5045 109.068 31.5342C108.897 31.5579 108.732 31.6351 108.564 31.6886L108.57 31.6856ZM113.258 29.8806C114.165 29.8004 114.754 29.3076 115.375 28.9335C115.67 28.7584 116.391 28.7465 116.156 28.2418C115.976 27.8559 115.434 28.2923 115.158 28.4556C114.516 28.8326 113.682 28.99 113.258 29.8806Z" fill="#E9F5F4"/>
<path d="M108.57 31.686C108.738 31.6326 108.903 31.5524 109.074 31.5316C109.295 31.502 109.548 31.1457 109.698 31.4188C109.819 31.6385 109.636 31.9681 109.436 32.1907C109.301 32.3421 109.156 32.4787 108.938 32.4876C108.65 32.2976 108.461 32.0601 108.573 31.683L108.57 31.686Z" fill="#FA8E6D"/>
<path d="M119.766 24.3113C119.427 24.6349 118.871 24.4211 118.723 24.3291C118.287 24.0649 118.959 24.0382 118.974 23.8096C119.268 23.9313 119.533 24.0975 119.766 24.3113Z" fill="#FA8E6D"/>
<path d="M113.258 29.8811C113.682 28.9875 114.512 28.8332 115.157 28.4561C115.434 28.2958 115.976 27.8564 116.156 28.2424C116.391 28.7471 115.67 28.7589 115.375 28.9341C114.754 29.3052 114.168 29.801 113.258 29.8811Z" fill="#FA8E6D"/>
</g>
<defs>
<clipPath id="clip0_665_23850">
<rect width="151" height="118" fill="white"/>
</clipPath>
</defs>
</svg>
