<?xml version="1.0" encoding="utf-8"?>
<!-- Svg Vector Icons : http://www.onlinewebfonts.com/icon -->
<!DOCTYPE svg PUBLIC "-//W3C//DTD SVG 1.1//EN" "http://www.w3.org/Graphics/SVG/1.1/DTD/svg11.dtd">
<svg version="1.1" xmlns="http://www.w3.org/2000/svg" xmlns:xlink="http://www.w3.org/1999/xlink" x="0px" y="0px" viewBox="0 0 256 256" enable-background="new 0 0 256 256" xml:space="preserve">
<metadata> Svg Vector Icons : http://www.onlinewebfonts.com/icon </metadata>
<g><g><g><path fill="#FFFFFF" d="M124,33.5c-3.2,0.9,1.3-1.9-60.2,38c-31.6,20.5-51.7,33.9-52.5,35c-1.7,2.4-1.8,7.6-0.1,9.9c0.6,0.9,11.2,8.1,23.5,16.1L57.1,147l0.3,19.3l0.3,19.3l1.6,2.7c7,11.8,34.9,20,68.8,20c29.6,0,55.6-6.4,65.4-16c5-5,5.2-5.5,5.2-27v-18.1l9.6-6.2c5.2-3.4,9.9-6.3,10.3-6.5c0.6-0.2,0.7,4.6,0.7,27.8c0,27.9,0,28.1-1.2,29.2c-0.7,0.6-3.4,5.5-6,10.7c-5.3,10.7-5.9,13.3-3.7,16.9c2.1,3.5,3.7,3.9,15.2,3.9c11.6,0,13-0.3,15.2-3.9c2.2-3.6,1.7-5.6-3.9-16.9c-2.8-5.6-5.5-10.6-6-11c-0.8-0.7-0.9-3.8-0.9-31.9v-31.2l7.7-5c4.2-2.8,8.3-5.8,9-6.8c1.8-2.5,1.8-7.5,0.1-9.9c-1.2-1.7-106.8-70.7-110.6-72.3C131.2,33,126.8,32.7,124,33.5z M183.9,76.6c29.2,18.9,53,34.6,52.9,34.8c-0.1,0.2-8.6,5.9-19.1,12.7l-18.9,12.3l-0.3-8.4c-0.4-9.9-0.9-11.4-6-16c-6.8-6.2-20.1-10.9-39.1-13.8c-5.6-0.8-10.4-1-25.8-1c-16.7,0.1-19.9,0.2-27,1.3c-22.4,3.6-36.4,9.8-41.5,18.4c-1.4,2.5-1.6,3.2-1.8,11.1l-0.3,8.4l-18.9-12.3c-10.4-6.8-19-12.5-19.1-12.7c-0.1-0.2,23.8-16,53.1-35c53.1-34.5,53.2-34.5,56-34.4C130.7,42.2,134.2,44.3,183.9,76.6z M153.4,107.3c14.1,2.2,25,5.6,31.3,9.8c1.8,1.3,3.7,2.9,4.2,3.8c0.7,1.3,0.8,6.5,0.8,31.9c0,29.7,0,30.3-1.2,31.9c-3.9,5.3-17.7,10.6-34.4,13c-30.6,4.6-68.3,0.2-82.8-9.6c-5.5-3.7-5-1-5.2-34.8c-0.2-34.5-0.5-32.5,5.2-36.2c6.8-4.4,17.7-7.7,31.6-9.7c11.4-1.6,11.7-1.6,27.9-1.4C142.1,106.1,147.3,106.4,153.4,107.3z M230.7,213.6c0.1,0.3-3.2,0.5-7.1,0.5s-7.2-0.1-7.2-0.3c0-0.2,1.6-3.5,3.6-7.5l3.6-7.2l3.6,7C229.1,210.1,230.7,213.4,230.7,213.6z"/><path fill="#FFFFFF" d="M117.1,157.3c-18.4,1-39.9,5.7-43,9.4c-0.9,1.1-0.1,3.6,1.4,4.1c0.5,0.2,3.7-0.6,7.1-1.7c13.5-4.5,24.3-5.9,45.5-5.9c21.2,0,31.9,1.4,45.5,5.9c3.4,1.1,6.5,1.9,7.1,1.7c1.5-0.6,2.3-3,1.4-4.1c-1.9-2.3-14.3-5.9-26.5-7.7c-6.4-1-26.9-2.5-29.7-2.2C125.2,156.8,121.3,157,117.1,157.3z"/></g></g></g>
</svg>